<mxfile host="app.diagrams.net" modified="2024-01-08T08:28:24.702Z" agent="Mozilla/5.0 (Windows NT 10.0; Win64; x64) AppleWebKit/537.36 (KHTML, like Gecko) Chrome/120.0.0.0 Safari/537.36 Edg/120.0.0.0" version="22.1.17" etag="kpA9c0Ui4iBMz0Ev0x88" type="github">
  <diagram name="Page-1" id="p_PMgQPlf6-vGvT3pBbs">
    <mxGraphModel>
      <root>
        <mxCell id="0" />
        <mxCell id="1" parent="0" />
      </root>
    </mxGraphModel>
  </diagram>
</mxfile>
